<?xml version="1.0" encoding="UTF-8"?>
<svg id="Layer_1" data-name="Layer 1" xmlns="http://www.w3.org/2000/svg" viewBox="0 0 451.35 122.05">
  <defs>
    <style>
      .cls-1 {
        fill: #1a3767;
      }

      .cls-2 {
        fill: #2c5591;
      }
    </style>
  </defs>
  <path class="cls-2" d="M54.42,1.55h15.55V59.34c0,19.95-13.6,34.46-34.98,34.46S0,79.29,0,59.34V1.55H15.55V57.4c0,12.96,6.48,21.64,19.43,21.64s19.43-8.68,19.43-21.64V1.55Z"/>
  <path class="cls-2" d="M122.54,31.23l-5.44,13.99s-2.85-1.43-7.39-1.43c-9.46,0-13.73,8.29-13.73,8.29v40.17h-15.55V30.84h14.77v8.94s5.31-10.49,16.71-10.49c5.57,0,10.62,1.94,10.62,1.94Z"/>
  <path class="cls-1" d="M157.49,54.42c-13.35-4.66-28.37-11.92-28.37-28.76,0-12.83,11.4-25.65,29.67-25.65s29.54,14.38,29.54,14.38l-10.75,10.62s-7.52-10.24-18.79-10.24c-7.77,0-13.86,4.79-13.86,10.88,0,7.9,7.13,10.37,19.56,15.03,13.86,5.18,25.4,11.4,25.4,27.86s-14.51,25.26-31.61,25.26c-22.67,0-33.17-18.53-33.17-18.53l11.66-9.85s7.77,13.6,21.51,13.6c7.77,0,15.81-3.11,15.81-10.5s-5.83-10.37-16.58-14.12Z"/>
  <path class="cls-1" d="M212.64,30.84v8.03s5.83-9.59,18.53-9.59c15.94,0,29.93,13.35,29.93,32.26s-13.99,32.26-29.93,32.26c-9.72,0-15.29-5.31-17.36-7.9v36.15h-15.55V30.84h14.38Zm1.17,39.91s4.41,8.55,14.64,8.55,16.84-7.64,16.84-17.75-6.35-17.75-16.84-17.75-14.64,8.55-14.64,8.55v18.4Z"/>
  <path class="cls-1" d="M320.65,52.22v40.04h-14.38v-7.77s-6.35,9.33-20.21,9.33c-11.53,0-22.16-7.51-22.16-20.6,0-11.79,10.75-20.34,24.1-20.34,11.27,0,17.1,4.41,17.1,4.41v-3.5c0-8.03-7.77-10.62-13.22-10.62-8.94,0-18.4,4.53-18.4,4.53l-5.05-12.83s11.4-5.57,24.23-5.57c17.62,0,27.99,8.94,27.99,22.93Zm-15.55,21.51v-6.35s-5.57-3.11-13.99-3.11c-4.79,0-11.4,2.07-11.4,8.68s6.35,7.9,11.14,7.9c9.33,0,14.25-7.13,14.25-7.13Z"/>
  <path class="cls-1" d="M374.5,71.78l10.24,10.37s-8.81,11.66-25.4,11.66c-18.4,0-33.04-14.25-33.04-32.26s14.64-32.26,33.04-32.26c16.46,0,25.14,11.4,25.14,11.4l-10.75,9.59s-5.05-6.48-14.38-6.48c-10.49,0-17.23,8.16-17.23,17.75s6.74,17.75,17.23,17.75,15.16-7.52,15.16-7.52Z"/>
  <path class="cls-1" d="M437.52,39.51c.82,.82,2.47,2.47,4.03,4.21l-32.43,32.43c4.67,3.02,14.11,3.48,20.98-3.39,7.6-7.6,7.51-16.31,7.51-16.31l13.74,2.75s-.64,13.1-11.18,23.64c-13.19,13.19-33.44,13.28-46.17,.55-12.73-12.73-13.56-32.07-1.01-44.62s31.15-12.64,44.53,.73Zm-14.84,7.15c-3.94-3.57-12.46-5.13-19.7,2.11s-5.31,15.21-1.83,19.42l21.53-21.53Z"/>
</svg>